<mxfile host="app.diagrams.net" agent="Mozilla/5.0 (Windows NT 10.0; Win64; x64) AppleWebKit/537.36 (KHTML, like Gecko) Chrome/129.0.0.0 Safari/537.36" version="24.8.3">
  <diagram name="Trang-1" id="RHt6qxSfLuaw2ETOcPo0">
    <mxGraphModel dx="1006" dy="531" grid="1" gridSize="10" guides="1" tooltips="1" connect="1" arrows="1" fold="1" page="1" pageScale="1" pageWidth="1654" pageHeight="2336" math="0" shadow="0">
      <root>
        <mxCell id="0" />
        <mxCell id="1" parent="0" />
        <mxCell id="x2aKG1nvb0orZKMKeAj8-1" style="edgeStyle=orthogonalEdgeStyle;rounded=0;orthogonalLoop=1;jettySize=auto;html=1;exitX=0.5;exitY=1;exitDx=0;exitDy=0;entryX=0.5;entryY=0;entryDx=0;entryDy=0;" edge="1" parent="1" source="x2aKG1nvb0orZKMKeAj8-2" target="x2aKG1nvb0orZKMKeAj8-7">
          <mxGeometry relative="1" as="geometry" />
        </mxCell>
        <mxCell id="x2aKG1nvb0orZKMKeAj8-2" value="&lt;span&gt;Bắt đầu và khởi tạo&lt;/span&gt;" style="ellipse;whiteSpace=wrap;html=1;fontStyle=1" vertex="1" parent="1">
          <mxGeometry x="460" y="160" width="120" height="80" as="geometry" />
        </mxCell>
        <mxCell id="x2aKG1nvb0orZKMKeAj8-3" style="edgeStyle=orthogonalEdgeStyle;rounded=0;orthogonalLoop=1;jettySize=auto;html=1;exitX=0.5;exitY=1;exitDx=0;exitDy=0;entryX=0.5;entryY=0;entryDx=0;entryDy=0;" edge="1" parent="1" source="x2aKG1nvb0orZKMKeAj8-4" target="x2aKG1nvb0orZKMKeAj8-9">
          <mxGeometry relative="1" as="geometry" />
        </mxCell>
        <mxCell id="x2aKG1nvb0orZKMKeAj8-4" value="Hiển thị lên&amp;nbsp;&lt;div&gt;màn hình OLED&lt;/div&gt;" style="rounded=1;whiteSpace=wrap;html=1;fontStyle=1" vertex="1" parent="1">
          <mxGeometry x="440" y="400" width="160" height="80" as="geometry" />
        </mxCell>
        <mxCell id="x2aKG1nvb0orZKMKeAj8-5" style="edgeStyle=orthogonalEdgeStyle;rounded=0;orthogonalLoop=1;jettySize=auto;html=1;exitX=0.5;exitY=1;exitDx=0;exitDy=0;entryX=0.5;entryY=0;entryDx=0;entryDy=0;" edge="1" parent="1" source="x2aKG1nvb0orZKMKeAj8-7" target="x2aKG1nvb0orZKMKeAj8-4">
          <mxGeometry relative="1" as="geometry" />
        </mxCell>
        <mxCell id="x2aKG1nvb0orZKMKeAj8-6" style="edgeStyle=orthogonalEdgeStyle;rounded=0;orthogonalLoop=1;jettySize=auto;html=1;exitX=1;exitY=0.5;exitDx=0;exitDy=0;" edge="1" parent="1" source="x2aKG1nvb0orZKMKeAj8-7">
          <mxGeometry relative="1" as="geometry">
            <mxPoint x="520" y="260" as="targetPoint" />
            <Array as="points">
              <mxPoint x="680" y="320" />
              <mxPoint x="680" y="260" />
            </Array>
          </mxGeometry>
        </mxCell>
        <mxCell id="x2aKG1nvb0orZKMKeAj8-7" value="Nhận được dữ liệu&amp;nbsp;&lt;div&gt;từ Node?&lt;/div&gt;" style="rhombus;whiteSpace=wrap;html=1;fontStyle=1" vertex="1" parent="1">
          <mxGeometry x="435" y="280" width="170" height="80" as="geometry" />
        </mxCell>
        <mxCell id="x2aKG1nvb0orZKMKeAj8-8" style="edgeStyle=orthogonalEdgeStyle;rounded=0;orthogonalLoop=1;jettySize=auto;html=1;exitX=0;exitY=0.5;exitDx=0;exitDy=0;entryX=0;entryY=0.5;entryDx=0;entryDy=0;" edge="1" parent="1" source="x2aKG1nvb0orZKMKeAj8-9" target="x2aKG1nvb0orZKMKeAj8-7">
          <mxGeometry relative="1" as="geometry">
            <Array as="points">
              <mxPoint x="360" y="560" />
              <mxPoint x="360" y="320" />
            </Array>
          </mxGeometry>
        </mxCell>
        <mxCell id="x2aKG1nvb0orZKMKeAj8-9" value="Truyền lên Server" style="rounded=1;whiteSpace=wrap;html=1;fontStyle=1" vertex="1" parent="1">
          <mxGeometry x="440" y="520" width="160" height="80" as="geometry" />
        </mxCell>
        <mxCell id="x2aKG1nvb0orZKMKeAj8-10" value="&lt;b&gt;Đúng&lt;/b&gt;" style="text;html=1;align=center;verticalAlign=middle;whiteSpace=wrap;rounded=0;" vertex="1" parent="1">
          <mxGeometry x="520" y="360" width="60" height="30" as="geometry" />
        </mxCell>
        <mxCell id="x2aKG1nvb0orZKMKeAj8-11" value="&lt;b&gt;Sai&lt;/b&gt;" style="text;html=1;align=center;verticalAlign=middle;whiteSpace=wrap;rounded=0;" vertex="1" parent="1">
          <mxGeometry x="610" y="290" width="60" height="30" as="geometry" />
        </mxCell>
        <mxCell id="x2aKG1nvb0orZKMKeAj8-12" value="Lưu đồ giải thuật cho Master" style="swimlane;whiteSpace=wrap;html=1;" vertex="1" parent="1">
          <mxGeometry x="280" y="120" width="480" height="520" as="geometry" />
        </mxCell>
      </root>
    </mxGraphModel>
  </diagram>
</mxfile>
